<?xml version="1.0" encoding="utf-8"?>
<!-- Generator: Adobe Illustrator 13.0.0, SVG Export Plug-In . SVG Version: 6.00 Build 14948)  -->
<!DOCTYPE svg PUBLIC "-//W3C//DTD SVG 1.1//EN" "http://www.w3.org/Graphics/SVG/1.1/DTD/svg11.dtd">
<svg version="1.1" xmlns="http://www.w3.org/2000/svg" xmlns:xlink="http://www.w3.org/1999/xlink" x="0px" y="0px" width="595px"
	 height="595px" viewBox="0 0 595 595" enable-background="new 0 0 595 595" xml:space="preserve">
<g id="Слой_3">
	<path d="M500.729,11.829H92.919c-45.542,0-82.594,37.052-82.594,82.595v407.811c0,45.543,37.053,82.596,82.594,82.596h407.81
		c45.543,0,82.595-37.053,82.595-82.596V94.423C583.324,48.881,546.272,11.829,500.729,11.829z"/>
	
		<linearGradient id="SVGID_1_" gradientUnits="userSpaceOnUse" x1="295.9282" y1="-124.4912" x2="295.9282" y2="-231.4951" gradientTransform="matrix(1 0 0 -1 0 342.0029)">
		<stop  offset="0" style="stop-color:#000000"/>
		<stop  offset="0.2467" style="stop-color:#040404"/>
		<stop  offset="0.5165" style="stop-color:#121212"/>
		<stop  offset="0.7817" style="stop-color:#262626"/>
		<stop  offset="0.9001" style="stop-color:#131313"/>
		<stop  offset="0.9949" style="stop-color:#000000"/>
	</linearGradient>
	<path fill="url(#SVGID_1_)" d="M293.272,466.494c-82.866,0-145.497,8.176-186.152,24.297
		c-41.693,16.535-47.919,36.873-47.919,47.523c0,8.902,4.063,17.527,11.44,24.285c7.674,7.027,17.742,10.898,28.35,10.898h395
		c20.867,0,38.571-15.52,38.663-33.889c0.054-10.729-6.176-31.246-48.503-48.111c-41.391-16.492-105.12-24.904-189.418-25.002
		L293.272,466.494L293.272,466.494z"/>
	<linearGradient id="SVGID_2_" gradientUnits="userSpaceOnUse" x1="295.9282" y1="327.4976" x2="295.9282" y2="20.4951">
		<stop  offset="0" style="stop-color:#000000"/>
		<stop  offset="0.156" style="stop-color:#040404"/>
		<stop  offset="0.327" style="stop-color:#121212"/>
		<stop  offset="0.505" style="stop-color:#282828"/>
		<stop  offset="0.6867" style="stop-color:#464646"/>
		<stop  offset="0.7817" style="stop-color:#595959"/>
		<stop  offset="0.8384" style="stop-color:#464646"/>
		<stop  offset="0.9534" style="stop-color:#141414"/>
		<stop  offset="0.9949" style="stop-color:#000000"/>
	</linearGradient>
	<path fill="url(#SVGID_2_)" d="M293.272,327.498c-82.866,0-145.497-23.837-186.152-70.847
		c-41.693-48.21-47.919-107.51-47.919-138.567c0-25.961,4.063-51.109,11.44-70.811c7.674-20.491,17.742-26.778,28.35-26.778h395
		c20.867,0,38.571,40.25,38.663,93.812c0.054,31.283-6.176,91.107-48.503,140.285c-41.391,48.087-105.12,72.616-189.418,72.904
		L293.272,327.498L293.272,327.498z"/>
</g>
<g id="abstract">
	<g>
		<path fill="#FBB03B" d="M161.504,323.475c-0.459,0-0.925-0.128-1.34-0.392c-26.721-17.005-52.873-38.606-77.731-64.199
			c-0.943-0.97-0.941-2.515,0-3.485c0.49-0.504,1.141-0.758,1.793-0.758c0.604,0,1.21,0.217,1.689,0.657
			c22.472,20.597,53.836,40.593,83.898,53.489c0.712,0.305,1.242,0.923,1.436,1.673c0.193,0.75,0.028,1.547-0.447,2.159
			c-2.417,3.108-4.859,6.406-7.254,9.797C163.064,323.103,162.291,323.475,161.504,323.475L161.504,323.475z"/>
		<path fill="#1A1A1A" d="M84.226,257.141c20.385,18.683,51.719,39.836,84.602,53.943c-2.456,3.159-4.895,6.453-7.32,9.89
			C136.207,304.871,110.049,283.729,84.226,257.141L84.226,257.141z M84.227,252.141c-1.306,0-2.608,0.508-3.587,1.516
			c-1.885,1.94-1.885,5.027,0,6.967c24.991,25.73,51.295,47.455,78.184,64.568c0.831,0.528,1.761,0.782,2.681,0.782
			c1.574,0,3.118-0.742,4.089-2.118c2.361-3.345,4.777-6.61,7.183-9.704c0.951-1.223,1.281-2.817,0.894-4.317
			c-0.387-1.5-1.447-2.736-2.87-3.347c-29.818-12.792-60.918-32.619-83.194-53.034C86.646,252.576,85.435,252.141,84.227,252.141
			L84.227,252.141z"/>
	</g>
	<g>
		<path fill="#FBB03B" d="M481.623,317.576c-1.273,0-2.346-0.957-2.485-2.226c-7.014-63.843-30.203-101.958-62.032-101.958
			c-22.842,0-46.004,20.339-60.444,53.081c-0.278,0.632-0.808,1.122-1.461,1.349c-0.268,0.095-0.549,0.142-0.826,0.142
			c-0.398,0-0.797-0.095-1.158-0.285c-15.012-7.832-30.102-13.277-44.844-16.182c-1.339-0.266-2.218-1.552-1.978-2.895
			c7.26-40.578,47.602-72.364,91.841-72.364c23.06,0,43.247,8.692,58.381,25.135c22.176,24.092,31.684,63.48,27.499,113.91
			c-0.107,1.284-1.17,2.277-2.458,2.293C481.646,317.576,481.634,317.576,481.623,317.576L481.623,317.576z"/>
		<path fill="#1A1A1A" d="M398.235,178.738c46.371,0.007,91.586,37.583,83.389,136.338c-8.07-73.438-35.7-104.19-64.518-104.184
			c-23.422,0.005-47.631,20.33-62.733,54.572c-14.003-7.308-29.342-13.233-45.518-16.422
			C316.304,207.42,357.709,178.731,398.235,178.738L398.235,178.738z M398.222,173.738c-21.244,0-42.585,7.299-60.099,20.555
			c-18.312,13.86-30.454,32.991-34.189,53.869c-0.48,2.685,1.279,5.259,3.955,5.787c14.513,2.86,29.373,8.227,44.171,15.949
			c0.722,0.376,1.516,0.567,2.313,0.567c0.558,0,1.117-0.093,1.654-0.281c1.305-0.458,2.362-1.436,2.92-2.701
			c14.033-31.817,36.319-51.585,58.16-51.59c0.003,0,0.006,0,0.008,0c13.493,0,25.907,7.735,35.901,22.371
			c11.802,17.281,19.975,44.032,23.638,77.36c0.278,2.538,2.423,4.454,4.969,4.454c0.022,0,0.045,0,0.067,0
			c2.575-0.034,4.703-2.019,4.917-4.586c4.244-51.137-5.488-91.181-28.146-115.8c-15.397-16.731-36.786-25.948-60.226-25.952
			C398.232,173.738,398.226,173.738,398.222,173.738L398.222,173.738z"/>
	</g>
	<g>
		<path fill="#FBB03B" d="M274.278,362.766c-0.004,0-0.008,0-0.012,0c-31.744-0.004-68.759-12.214-107.043-35.316
			c-0.65-0.391-1.084-1.058-1.186-1.809s0.145-1.507,0.668-2.055c3.417-3.585,6.982-7.04,10.594-10.269
			c0.466-0.417,1.062-0.636,1.666-0.636c0.298,0,0.601,0.054,0.888,0.164c20.517,7.787,39.228,11.734,55.611,11.734
			c30.044-0.002,50.941-13.297,62.113-39.516c0.399-0.94,1.316-1.521,2.298-1.521c0.215,0,0.435,0.029,0.651,0.087
			c14.694,3.952,29.894,10.25,45.173,18.718c0.891,0.493,1.394,1.476,1.271,2.486c-2.207,18.267-10.194,33.199-23.101,43.182
			C311.396,357.663,294.245,362.766,274.278,362.766L274.278,362.766z"/>
		<path fill="#1A1A1A" d="M299.876,286.041c16.099,4.331,31.168,11.041,44.613,18.49c-4.395,36.363-31.262,55.734-70.224,55.734
			c-29.746,0-66.545-11.3-105.75-34.956c3.463-3.632,6.952-7.003,10.449-10.128c19.252,7.306,38.699,11.896,56.499,11.896
			C263.354,327.078,287.198,315.803,299.876,286.041L299.876,286.041z M299.875,281.04c-1.962,0-3.798,1.161-4.599,3.042
			c-10.74,25.212-30.864,37.996-59.813,37.996c-16.081,0-34.493-3.893-54.725-11.571c-0.576-0.219-1.177-0.325-1.773-0.325
			c-1.209,0-2.399,0.438-3.332,1.271c-3.65,3.261-7.262,6.762-10.737,10.407c-1.046,1.098-1.538,2.611-1.336,4.114
			c0.201,1.503,1.074,2.833,2.372,3.617c38.68,23.339,76.141,35.675,108.333,35.675c20.533,0,38.215-5.283,51.134-15.276
			c13.447-10.402,21.765-25.914,24.054-44.858c0.244-2.021-0.761-3.987-2.541-4.974c-15.462-8.566-30.85-14.94-45.737-18.944
			C300.742,281.096,300.305,281.04,299.875,281.04L299.875,281.04z"/>
	</g>
	<g>
		<path fill="#808080" d="M436.32,345.414c-22.963-0.002-46.727-8.119-68.726-23.469c-8.095-5.653-16.276-10.775-24.316-15.227
			c-0.893-0.494-1.396-1.481-1.269-2.493c0.046-0.385,0.104-0.761,0.161-1.138c0.074-0.474,0.149-0.945,0.191-1.439
			c1.12-12.74,4.394-25.251,9.729-37.203c0.279-0.631,0.81-1.117,1.46-1.342c0.267-0.092,0.547-0.139,0.822-0.139
			c0.399,0,0.795,0.095,1.157,0.282c21.744,11.348,38.854,25.215,49.377,34.853c18.374,16.824,37.37,34.224,59.83,34.222
			c4.553-0.002,9.261-0.703,13.99-2.089c0.233-0.067,0.469-0.101,0.7-0.101c1.006,0,1.943,0.61,2.329,1.588
			c0.473,1.203-0.051,2.571-1.21,3.149C466.551,341.867,451.669,345.414,436.32,345.414L436.32,345.414z"/>
		<path fill="#1A1A1A" d="M354.373,265.464c19.278,10.06,36.015,22.729,48.848,34.479c20.346,18.634,38.73,34.877,61.516,34.877
			c4.692,0,9.572-0.689,14.693-2.188c-13.848,6.924-28.385,10.282-43.11,10.282c-22.611,0-45.661-7.923-67.293-23.021
			c-7.333-5.119-15.575-10.402-24.537-15.363c0.111-0.905,0.288-1.757,0.364-2.679C345.973,289.131,349.341,276.738,354.373,265.464
			L354.373,265.464z M354.373,260.464c-0.555,0-1.11,0.092-1.644,0.278c-1.303,0.453-2.36,1.424-2.922,2.684
			c-5.448,12.206-8.791,24.987-9.935,37.988c-0.033,0.403-0.098,0.813-0.171,1.287c-0.063,0.402-0.125,0.806-0.176,1.219
			c-0.249,2.024,0.757,3.998,2.541,4.985c7.958,4.405,16.065,9.481,24.097,15.088c22.423,15.649,46.682,23.92,70.155,23.92
			c15.744,0,31.001-3.637,45.347-10.81c2.314-1.158,3.363-3.891,2.418-6.3c-0.769-1.956-2.646-3.173-4.653-3.173
			c-0.466,0-0.938,0.065-1.405,0.202c-4.505,1.318-8.976,1.987-13.289,1.987c-21.49,0-40.121-17.063-58.139-33.565
			c-10.635-9.737-27.926-23.751-49.911-35.224C355.965,260.655,355.171,260.464,354.373,260.464L354.373,260.464z"/>
	</g>
	<g>
		<path fill="#CCCCCC" d="M119.158,402.461c-0.343,0-0.69-0.07-1.022-0.22c-1.236-0.554-1.807-1.991-1.285-3.242
			c12.87-30.923,27.208-57.661,42.615-79.469c0.484-0.688,1.256-1.057,2.042-1.057c0.462,0,0.928,0.127,1.345,0.392
			c2.143,1.367,4.418,2.775,6.953,4.303c0.649,0.392,1.086,1.058,1.187,1.809c0.101,0.751-0.146,1.509-0.669,2.057
			c-17.801,18.665-34.257,43.565-48.913,74.01C120.981,401.938,120.09,402.461,119.158,402.461L119.158,402.461z"/>
		<path fill="#1A1A1A" d="M161.507,320.974c2.344,1.494,4.676,2.929,7.008,4.335c-17.145,17.976-33.791,42.316-49.358,74.651
			C132.53,367.837,146.768,341.838,161.507,320.974L161.507,320.974z M161.511,315.974c-1.573,0-3.116,0.741-4.087,2.115
			c-15.509,21.953-29.937,48.852-42.883,79.95c-1.041,2.5,0.099,5.375,2.57,6.483c0.664,0.298,1.359,0.439,2.043,0.439
			c1.864,0,3.648-1.047,4.508-2.832c14.545-30.212,30.853-54.897,48.471-73.37c1.047-1.098,1.539-2.611,1.337-4.115
			s-1.075-2.834-2.375-3.618c-2.511-1.514-4.769-2.91-6.902-4.27C163.363,316.228,162.432,315.974,161.511,315.974L161.511,315.974z
			"/>
	</g>
	<g>
		<path fill="#B2B2B2" d="M178.965,317.682c-0.299,0-0.6-0.054-0.888-0.163c-3.457-1.315-6.898-2.706-10.235-4.136
			c-0.711-0.305-1.241-0.923-1.434-1.673c-0.194-0.748-0.031-1.546,0.445-2.158c33.772-43.511,72.92-65.573,116.352-65.573
			c8.555,0,17.347,0.878,26.134,2.611c1.327,0.262,2.205,1.533,1.98,2.869c-0.333,1.982-0.602,3.761-0.82,5.435
			c-1.595,12.104-4.394,22.912-8.323,32.13c-0.4,0.94-1.317,1.519-2.299,1.519c-0.216,0-0.435-0.029-0.65-0.086
			c-12.164-3.273-24.171-4.932-35.689-4.932c-30.092,0-57.986,11.28-82.907,33.523C180.164,317.463,179.569,317.682,178.965,317.682
			L178.965,317.682z"/>
		<path fill="#1A1A1A" d="M283.204,246.478c8.724,0,17.299,0.917,25.652,2.564c-0.309,1.819-0.592,3.658-0.835,5.529
			c-1.612,12.237-4.39,22.663-8.145,31.47c-11.656-3.136-23.84-5.019-36.336-5.018c-27.531,0.001-56.55,9.143-84.575,34.158
			c-3.386-1.288-6.768-2.653-10.137-4.097C206.01,263.18,245.971,246.477,283.204,246.478L283.204,246.478z M283.204,241.478
			L283.204,241.478c-44.244-0.001-84.055,22.387-118.326,66.541c-0.95,1.223-1.279,2.817-0.891,4.317
			c0.387,1.499,1.447,2.734,2.871,3.345c3.374,1.446,6.85,2.851,10.329,4.175c0.578,0.22,1.18,0.327,1.777,0.327
			c1.208,0,2.398-0.438,3.331-1.27c24.448-21.821,51.783-32.886,81.246-32.888c0.002,0,0.004,0,0.006,0
			c11.293,0,23.079,1.63,35.031,4.846c0.433,0.117,0.869,0.172,1.3,0.172c1.962,0,3.797-1.16,4.599-3.04
			c4.018-9.424,6.878-20.452,8.502-32.778c0.22-1.688,0.483-3.433,0.808-5.346c0.453-2.671-1.304-5.217-3.962-5.741
			C300.877,242.372,291.921,241.478,283.204,241.478L283.204,241.478z"/>
	</g>
	<g>
		<path fill="#E6E6E6" d="M351.15,449.227c-27.214,0-56.069-7.717-81.251-21.73c-29.059-16.171-52.903-40.44-68.953-70.189
			c-0.637-1.181-0.229-2.652,0.923-3.336c0.4-0.237,0.841-0.351,1.275-0.351c0.82,0,1.621,0.403,2.099,1.137
			c16.171,24.874,37.226,44.173,62.574,57.363c22.307,11.608,46.813,17.744,70.873,17.744c44.733,0,77.946-20.8,82.648-51.754
			c0.174-1.143,1.108-2.017,2.26-2.116c0.071-0.006,0.143-0.008,0.214-0.008c1.067,0,2.03,0.684,2.372,1.713
			c5.477,16.509,3.703,31.707-5.136,43.951C408.585,438.918,382.455,449.227,351.15,449.227L351.15,449.227z"/>
		<path fill="#1A1A1A" d="M203.146,356.119c34.851,53.599,89.349,76.244,135.546,76.244c43.728,0,80.021-20.309,85.118-53.878
			c14.065,42.388-23.187,68.241-72.659,68.241C300.69,446.727,237.518,419.821,203.146,356.119L203.146,356.119z M203.142,351.119
			c-0.87,0-1.749,0.227-2.548,0.701c-2.306,1.369-3.122,4.313-1.848,6.674c16.278,30.168,40.462,54.785,69.938,71.188
			c25.549,14.217,54.836,22.046,82.468,22.046c15.494,0,30.159-2.5,42.408-7.231c12.776-4.935,22.983-12.328,29.518-21.381
			c9.326-12.922,11.222-28.899,5.479-46.204c-0.684-2.058-2.606-3.425-4.743-3.425c-0.142,0-0.284,0.006-0.427,0.018
			c-2.304,0.196-4.173,1.946-4.52,4.231c-2.222,14.628-11.121,27.081-25.736,36.011c-14.371,8.781-33.704,13.617-54.438,13.617
			c-52.133,0-101.238-27.652-131.354-73.97C206.382,351.924,204.781,351.119,203.142,351.119L203.142,351.119z"/>
	</g>
	<g>
		<path fill="#E6E6E6" d="M173.171,286.219c-0.868,0-1.705-0.454-2.165-1.245c-18.512-31.911-20.907-63.023-6.745-87.608
			c13.756-23.884,42.181-38.72,74.184-38.72c25.856,0,52.104,9.683,73.91,27.262c1.052,0.847,1.239,2.375,0.427,3.453
			c-0.49,0.649-1.238,0.993-1.995,0.993c-0.501,0-1.004-0.15-1.443-0.459c-16.524-11.68-36.975-18.114-57.587-18.114
			c-27.516,0-52.564,11.505-67.006,30.777c-15.395,20.544-18.569,48.367-9.181,80.457c0.354,1.214-0.251,2.503-1.414,3.001
			C173.835,286.153,173.501,286.219,173.171,286.219L173.171,286.219z"/>
		<path fill="#1A1A1A" d="M238.446,161.146c23.7,0,49.4,8.213,72.342,26.709c-17.665-12.487-38.652-18.573-59.031-18.573
			c-52.189,0-100.389,39.914-78.587,114.436C132.088,212.898,178.961,161.146,238.446,161.146L238.446,161.146z M238.446,156.146
			c-16.061,0-31.571,3.631-44.856,10.501c-13.531,6.998-24.421,17.188-31.495,29.469c-14.626,25.393-12.229,57.394,6.749,90.11
			c0.919,1.585,2.592,2.492,4.328,2.492c0.659,0,1.328-0.131,1.968-0.406c2.324-0.997,3.538-3.572,2.828-5.999
			c-9.159-31.306-6.121-58.367,8.784-78.257c13.971-18.644,38.272-29.775,65.005-29.775c20.099,0,40.038,6.271,56.145,17.657
			c0.876,0.619,1.884,0.917,2.883,0.917c1.517,0,3.013-0.688,3.993-1.987c1.628-2.154,1.251-5.211-0.852-6.906
			C291.677,166.025,264.871,156.146,238.446,156.146L238.446,156.146z"/>
	</g>
	<path fill="#FBB03B" d="M481.624,315.076c15.361-185.063-156.799-155.281-172.769-66.034c16.176,3.188,31.515,9.114,45.518,16.422
		C388.057,189.094,466.995,181.949,481.624,315.076z"/>
	<path fill="#FBB03B" d="M344.489,304.531c-13.445-7.449-28.515-14.159-44.613-18.49c-20.77,48.757-71.495,47.894-120.912,29.14
		c-3.498,3.125-6.986,6.496-10.449,10.128C259.073,379.951,336.74,368.654,344.489,304.531z"/>
	<path fill="#FBB03B" d="M84.226,257.141c25.823,26.588,51.981,47.73,77.281,63.833c2.426-3.438,4.865-6.731,7.32-9.89
		C135.945,296.977,104.611,275.823,84.226,257.141z"/>
	<path fill="#808080" d="M344.489,304.531c8.962,4.961,17.204,10.244,24.537,15.363c35.72,24.93,75.293,30.294,110.403,12.738
		c-29.989,8.777-51.673-10.218-76.209-32.689c-12.833-11.75-29.569-24.419-48.848-34.479c-5.032,11.274-8.4,23.667-9.52,36.388
		C344.777,302.773,344.601,303.626,344.489,304.531z"/>
	<path fill="#CCCCCC" d="M161.507,320.974c-14.74,20.864-28.978,46.863-42.35,78.986c15.567-32.335,32.213-56.676,49.358-74.651
		C166.183,323.903,163.852,322.468,161.507,320.974z"/>
	<path fill="#B2B2B2" d="M299.876,286.041c3.755-8.808,6.532-19.233,8.145-31.47c0.243-1.871,0.526-3.709,0.835-5.529
		c-44.004-8.679-94.133,2.914-140.028,62.042c3.369,1.444,6.75,2.809,10.137,4.097C219.711,278.813,262.542,275.997,299.876,286.041
		z"/>
	<path fill="#FBB03B" d="M168.828,311.084c-2.456,3.159-4.895,6.453-7.32,9.89c2.344,1.494,4.676,2.929,7.008,4.335
		c3.463-3.632,6.952-7.003,10.449-10.128C175.578,313.893,172.196,312.528,168.828,311.084z"/>
	<path fill="#999999" d="M299.876,286.041c16.099,4.331,31.168,11.041,44.613,18.49c0.111-0.905,4.852-27.793,9.884-39.067
		c-14.003-7.308-29.342-13.233-45.518-16.422C308.547,250.861,303.631,277.233,299.876,286.041z"/>
</g>
<g id="border">
	<path fill="#FBB03B" d="M495,0c55.229,0,100,44.771,100,100v395c0,55.229-44.771,100-100,100H100C44.771,595,0,550.229,0,495V100
		C0,44.771,44.771,0,100,0H495L495,0z M495,20H100c-44.112,0-80,35.888-80,80v395c0,44.112,35.888,80,80,80h395
		c44.112,0,80-35.888,80-80V100C575,55.888,539.112,20,495,20L495,20z"/>
	<path fill="none" stroke="#B2B2B2" stroke-width="3" d="M562,492.81c0,38.213-31.096,69.19-69.453,69.19H102.453
		C64.095,562,33,531.022,33,492.81V104.19C33,65.978,64.095,35,102.453,35h390.094C530.904,35,562,65.978,562,104.19V492.81z"/>
	<polygon fill="#FFFFFF" points="505.407,79.146 408.102,80.309 505.145,81.24 467.91,103.115 507.326,83.16 508.401,186.893 
		509.596,83.334 546.569,128.714 511.341,81.676 584.268,80.542 512.388,79.582 550.291,57.037 510.032,77.487 508.867,5.607 
		507.501,77.138 478.092,43.016 	"/>
</g>
</svg>
